<?xml version="1.0" encoding="UTF-8" standalone="no"?>
<svg
   xmlns:dc="http://purl.org/dc/elements/1.1/"
   xmlns:cc="http://creativecommons.org/ns#"
   xmlns:rdf="http://www.w3.org/1999/02/22-rdf-syntax-ns#"
   xmlns:svg="http://www.w3.org/2000/svg"
   xmlns="http://www.w3.org/2000/svg"
   xmlns:sodipodi="http://sodipodi.sourceforge.net/DTD/sodipodi-0.dtd"
   xmlns:inkscape="http://www.inkscape.org/namespaces/inkscape"
   version="1.1"
   width="24"
   height="24"
   viewBox="0 0 24 24"
   id="svg4"
   sodipodi:docname="logo.svg"
   inkscape:export-filename="/home/vlas/browser_extension_developer/extensions/gmail_maximum_page_size/src/logo.svg.png"
   inkscape:export-xdpi="512"
   inkscape:export-ydpi="512"
   inkscape:version="0.92.4 (f8dce91, 2019-08-02)">
  <metadata
     id="metadata10">
    <rdf:RDF>
      <cc:Work
         rdf:about="">
        <dc:format>image/svg+xml</dc:format>
        <dc:type
           rdf:resource="http://purl.org/dc/dcmitype/StillImage" />
      </cc:Work>
    </rdf:RDF>
  </metadata>
  <defs
     id="defs8" />
  <sodipodi:namedview
     pagecolor="#ffffff"
     bordercolor="#666666"
     borderopacity="1"
     objecttolerance="10"
     gridtolerance="10"
     guidetolerance="10"
     inkscape:pageopacity="0"
     inkscape:pageshadow="2"
     inkscape:window-width="1920"
     inkscape:window-height="1056"
     id="namedview6"
     showgrid="false"
     inkscape:zoom="9.8333333"
     inkscape:cx="-1.4745763"
     inkscape:cy="12"
     inkscape:window-x="0"
     inkscape:window-y="24"
     inkscape:window-maximized="1"
     inkscape:current-layer="svg4" />
  <path
     d="M 10.666667,5.3333333 A 2.6666667,2.6666667 0 0 0 8,8 v 8 a 2.6666667,2.6666667 0 0 0 2.666667,2.666667 h 2.666666 A 2.6666667,2.6666667 0 0 0 16,16 V 10.666667 H 13.333333 V 16 H 10.666667 V 8 H 16 V 5.3333333 H 10.666667 M 2.6666667,0 H 21.333333 A 2.6666667,2.6666667 0 0 1 24,2.6666667 V 21.333333 A 2.6666667,2.6666667 0 0 1 21.333333,24 H 2.6666667 A 2.6666667,2.6666667 0 0 1 0,21.333333 V 2.6666667 A 2.6666667,2.6666667 0 0 1 2.6666667,0 Z"
     id="path2"
     style="fill:#de4e42;fill-opacity:1;stroke-width:1.33333337"
     inkscape:connector-curvature="0" />
</svg>
